<svg width="32" height="32" viewBox="0 0 32 32" fill="none" xmlns="http://www.w3.org/2000/svg">
<path fillRule="evenodd" clipRule="evenodd" d="M16.2656 18.5886L10.3987 24.4555L10.3979 24.4563C10.1286 24.7107 9.77066 24.8501 9.40019 24.8449C9.02972 24.8396 8.67595 24.6901 8.41397 24.4281C8.15198 24.1661 8.00243 23.8123 7.99717 23.4419C7.99191 23.0714 8.13133 22.7135 8.38578 22.4442L14.2535 16.5765L8.21095 10.534C7.95651 10.2647 7.81709 9.90674 7.82235 9.53628C7.82761 9.16581 7.97716 8.81202 8.23914 8.55003C8.50113 8.28804 8.8549 8.13852 9.22537 8.13326C9.59583 8.128 9.95376 8.26742 10.2231 8.52186L16.2656 14.5644L22.5996 8.2303C22.869 7.97586 23.2269 7.83644 23.5973 7.8417C23.9678 7.84695 24.3216 7.9965 24.5836 8.25849C24.8456 8.52048 24.9951 8.87425 25.0004 9.24471C25.0056 9.61518 24.8662 9.9731 24.6118 10.2424L18.2777 16.5765L24.4361 22.7349L24.4369 22.7357C24.6914 23.005 24.8308 23.363 24.8255 23.7334C24.8203 24.1039 24.6708 24.4577 24.4088 24.7197C24.1468 24.9816 23.793 25.1312 23.4225 25.1365C23.0521 25.1417 22.6941 25.0023 22.4248 24.7478L16.2656 18.5886Z" fill="#A4A4AB"/>
</svg>
