<svg xmlns="http://www.w3.org/2000/svg" xmlns:xlink="http://www.w3.org/1999/xlink" viewBox="0,0,256,256" width="48px" height="48px"><g fill="none" fill-rule="nonzero" stroke="none" stroke-width="none" stroke-linecap="none" stroke-linejoin="none" stroke-miterlimit="10" stroke-dasharray="" stroke-dashoffset="0" font-family="none" font-weight="none" font-size="none" text-anchor="none" style="mix-blend-mode: normal"><g transform="scale(5.33333,5.33333)"><circle cx="28" cy="28" r="18" fill="#9fa8da" stroke="none" stroke-width="1" stroke-linecap="butt" stroke-linejoin="miter"></circle><path d="M35.054,38.836c-3.084,2.301 -6.91,3.664 -11.054,3.664c-10.217,0 -18.5,-8.283 -18.5,-18.5c0,-2.917 0.675,-5.676 1.878,-8.13" fill="none" stroke="#fcfcfc" stroke-width="3" stroke-linecap="round" stroke-linejoin="round"></path><path d="M13.869,8.518c2.91,-1.908 6.391,-3.018 10.131,-3.018c10.217,0 18.5,8.283 18.5,18.5c0,2.941 -0.686,5.721 -1.907,8.19" fill="none" stroke="#fcfcfc" stroke-width="3" stroke-linecap="round" stroke-linejoin="round"></path><path d="M34,23c0,-1.574 -0.576,-3.038 -1.558,-4.275c0.442,-1.368 0.93,-3.771 -0.242,-5.648c-2.251,0 -3.73,1.545 -4.436,2.514c-1.162,-0.378 -2.431,-0.591 -3.764,-0.591c-1.333,0 -2.602,0.213 -3.764,0.591c-0.706,-0.969 -2.184,-2.514 -4.436,-2.514c-1.328,2.126 -0.526,4.45 -0.073,5.43c-1.089,1.281 -1.727,2.827 -1.727,4.493c0,3.78 3.281,6.94 7.686,7.776c-1.309,0.673 -2.287,1.896 -2.587,3.38h-1.315c-1.297,0 -1.801,-0.526 -2.502,-1.415c-0.692,-0.889 -1.437,-1.488 -2.331,-1.736c-0.482,-0.051 -0.806,0.316 -0.386,0.641c1.419,0.966 1.516,2.548 2.085,3.583c0.518,0.932 1.579,1.771 2.779,1.771h1.571v5.942h10v-7.806c0,-1.908 -1.098,-3.544 -2.686,-4.36c4.405,-0.836 7.686,-3.996 7.686,-7.776z" fill="#fcfcfc" stroke="none" stroke-width="1" stroke-linecap="butt" stroke-linejoin="miter"></path></g></g></svg>