<svg width="48" height="48" viewBox="0 0 48 48" fill="none" xmlns="http://www.w3.org/2000/svg">
<path d="M35.6833 22.3472H12.3167C11.8861 22.3594 11.4773 22.539 11.1771 22.8479C10.8769 23.1567 10.709 23.5704 10.709 24.0011C10.709 24.4319 10.8769 24.8456 11.1771 25.1545C11.4773 25.4633 11.8861 25.6429 12.3167 25.6552H35.6847C36.1152 25.6429 36.524 25.4633 36.8242 25.1545C37.1244 24.8456 37.2923 24.4319 37.2923 24.0011C37.2923 23.5704 37.1244 23.1567 36.8242 22.8479C36.524 22.539 36.1152 22.3594 35.6847 22.3472H35.6833Z" fill="white"/>
<path d="M24.647 16.6414H35.679C35.9001 16.6477 36.1203 16.6096 36.3264 16.5293C36.5326 16.449 36.7206 16.3281 36.8792 16.1739C37.0379 16.0197 37.164 15.8353 37.2501 15.6315C37.3362 15.4277 37.3806 15.2087 37.3806 14.9874C37.3806 14.7662 37.3362 14.5472 37.2501 14.3434C37.164 14.1396 37.0379 13.9551 36.8792 13.8009C36.7206 13.6467 36.5326 13.5259 36.3264 13.4456C36.1203 13.3653 35.9001 13.3272 35.679 13.3334H24.647C24.4258 13.3272 24.2056 13.3653 23.9994 13.4456C23.7933 13.5259 23.6053 13.6467 23.4467 13.8009C23.288 13.9551 23.1619 14.1396 23.0758 14.3434C22.9896 14.5472 22.9453 14.7662 22.9453 14.9874C22.9453 15.2087 22.9896 15.4277 23.0758 15.6315C23.1619 15.8353 23.288 16.0197 23.4467 16.1739C23.6053 16.3281 23.7933 16.449 23.9994 16.5293C24.2056 16.6096 24.4258 16.6477 24.647 16.6414Z" fill="white"/>
<path d="M23.3545 31.3589H12.3225C11.892 31.3711 11.4831 31.5507 11.1829 31.8596C10.8827 32.1684 10.7148 32.5822 10.7148 33.0129C10.7148 33.4436 10.8827 33.8574 11.1829 34.1662C11.4831 34.4751 11.892 34.6547 12.3225 34.6669H23.3545C23.785 34.6547 24.1939 34.4751 24.4941 34.1662C24.7943 33.8574 24.9622 33.4436 24.9622 33.0129C24.9622 32.5822 24.7943 32.1684 24.4941 31.8596C24.1939 31.5507 23.785 31.3711 23.3545 31.3589V31.3589Z" fill="white"/>
</svg>
